# xmcd CD database file
#
# Track frame offsets:
#	150
#	12592
#	32052
#	52664
#	64105
#	77554
#	88834
#	104714
#	114672
#	124279
#	138958
#	147987
#	163113
#	179281
#	189497
#	204090
#	211979
#
# Disc length: 3016 seconds
#
# Revision: 0
# Processed by: cddbd v1.5.2PL0 Copyright (c) Steve Scherf et al.
# Submitted via: CDex 1.51
#
DISCID=f00bc611
DTITLE=Peter Narvaez - Some Good Blues
DYEAR=2002
DGENRE=Blues
TTITLE0=Make Some Time (Beeper Blues)
TTITLE1=Organically Grown
TTITLE2=Maine
TTITLE3=Proper Thing Bounce
TTITLE4=The Stove
TTITLE5=Hoodoo Doctor (Self Esteem Blues)
TTITLE6=Your Cigarettes And Coffee (Gonna Be The Death Of Me)
TTITLE7=Black Fly Moan
TTITLE8=Time Alone With You
TTITLE9=Your Grate Needs Coal
TTITLE10=Curmudgeon Baby Blues
TTITLE11=Mean And Dirty (Low Down And Ugly Too)
TTITLE12=Airport Blues
TTITLE13=My Wife Drove Me From The Door
TTITLE14=Bulldozer Blues
TTITLE15=Fat Cats (Keep Getting Fatter)
TTITLE16=Bad Blood Mama
EXTD=YEAR: 2002
EXTT0=
EXTT1=
EXTT2=
EXTT3=
EXTT4=
EXTT5=
EXTT6=
EXTT7=
EXTT8=
EXTT9=
EXTT10=
EXTT11=
EXTT12=
EXTT13=
EXTT14=
EXTT15=
EXTT16=
PLAYORDER=
